<?xml version="1.0" encoding="iso-8859-1"?>
<!-- Generator: Adobe Illustrator 16.0.0, SVG Export Plug-In . SVG Version: 6.00 Build 0)  -->
<!DOCTYPE svg PUBLIC "-//W3C//DTD SVG 1.1//EN" "http://www.w3.org/Graphics/SVG/1.1/DTD/svg11.dtd">
<svg xmlns="http://www.w3.org/2000/svg" xmlns:xlink="http://www.w3.org/1999/xlink" version="1.1" id="Capa_1" x="0px" y="0px" width="512px" height="512px" viewBox="0 0 30.695 30.695" style="enable-background:new 0 0 30.695 30.695;" xml:space="preserve">
<g>
	<g>
		<path d="M28.527,18.524H2.169L0,28.353h30.695L28.527,18.524z M12.318,27.001l0.441-2.003h5.177l0.441,2.003H12.318z" fill="#FFFFFF"/>
		<path d="M28.459,17.903v-6.032h-0.001V2.343h-9.892h-6.438H2.239v9.529v6.032H28.459L28.459,17.903z M26.593,16.348H4.103V4.209    h8.423h5.645h8.423L26.593,16.348L26.593,16.348z" fill="#FFFFFF"/>
		<circle cx="11.341" cy="8.002" r="2.354" fill="#FFFFFF"/>
		<polygon points="12.25,10.71 11.38,11.751 10.483,10.71 8.406,11.185 8.406,15.295 9.146,15.295 9.183,15.997 13.436,15.997     13.471,15.295 14.024,15.295 14.024,11.286   " fill="#FFFFFF"/>
		<path d="M14.883,8.204c0,0.949,0.644,1.84,1.734,2.412l-0.847,1.482l0.365-0.057c0.024-0.004,2.459-0.382,4.131-0.878    c2.192-0.649,3.45-1.728,3.45-2.959c0-1.675-1.979-3.038-4.418-3.038C16.863,5.166,14.883,6.529,14.883,8.204z M19.298,5.522    c2.239,0,4.062,1.203,4.062,2.682c0,1.509-2.232,2.333-3.193,2.618c-1.264,0.374-2.975,0.682-3.717,0.806l0.667-1.165    l-0.175-0.083c-1.065-0.506-1.701-1.32-1.701-2.176C15.239,6.725,17.061,5.522,19.298,5.522z" fill="#FFFFFF"/>
	</g>
</g>
<g>
</g>
<g>
</g>
<g>
</g>
<g>
</g>
<g>
</g>
<g>
</g>
<g>
</g>
<g>
</g>
<g>
</g>
<g>
</g>
<g>
</g>
<g>
</g>
<g>
</g>
<g>
</g>
<g>
</g>
</svg>
